# xmcd
#
# Track frame offsets: 
#        150
#        18037
#        32494
#        50027
#        64985
#        82369
#        100238
#        119468
#        134665
#        163345
#        187482
#        202896
#        217034
#        237490
#
# Disc length: 3313 seconds
#
# Revision: 0
# Processed by: cddbd v1.5.2PL0 Copyright (c) Steve Scherf et al.
# Submitted via: ExactAudioCopyFreeDBPlugin 1.0
#
DISCID=dc0cef0e
DTITLE=Common - Nobody's Smiling (Deluxe Edition)
DYEAR=2014
DGENRE=Hip-Hop
TTITLE0=The Neighborhood (feat. Lil Herb and Cocaine 80s)
TTITLE1=No Fear
TTITLE2=Diamonds (feat. Big Sean)
TTITLE3=Blak Majik (feat. Jhené Aiko)
TTITLE4=Speak My Piece
TTITLE5=Hustle Harder (feat. Snoh Aalegra and Dreezy)
TTITLE6=Nobody’s Smiling (feat. Malik Yusef)
TTITLE7=Real (feat. Elijah Blake)
TTITLE8=Kingdom (feat. Vince Staples)
TTITLE9=Rewind That
TTITLE10=Out On Bond (feat. Vince Staples)
TTITLE11=7 Deadly Sins
TTITLE12=Young Hearts Run Free (feat. Cocaine 80s)
TTITLE13=City To City
EXTD=
EXTT0=
EXTT1=
EXTT2=
EXTT3=
EXTT4=
EXTT5=
EXTT6=
EXTT7=
EXTT8=
EXTT9=
EXTT10=
EXTT11=
EXTT12=
EXTT13=
PLAYORDER=
